<svg xmlns="http://www.w3.org/2000/svg" width="16" height="16" viewBox="0 0 700 700" aria-hidden="true">
  <!-- Silhueta omg.lol (cdn.cache.lol/favicons/omg.lol/safari-pinned-tab.svg); cor #ff69ad do mask-icon; fundo branco -->
  <rect width="700" height="700" fill="#ffffff" />
  <g transform="translate(0,700) scale(0.1,-0.1)" fill="#ff69ad" stroke="none">
    <path
      d="M1890 6290 c-102 -12 -150 -20 -224 -37 -37 -8 -73 -16 -80 -17 -166 -33 -445 -155 -626 -274 -475 -311 -785 -760 -911 -1317 -21 -91 -23 -105 -38 -230 -9 -72 -8 -446 2 -461 2 -5 7 -32 11 -61 39 -334 210 -725 444 -1015 82 -100 1581 -1600 1697 -1697 164 -136 349 -245 580 -341 69 -29 285 -90 370 -104 136 -24 213 -30 365 -31 259 0 353 12 610 80 250 66 583 248 790 432 74 65 1545 1540 1609 1613 250 285 428 668 487 1050 26 171 25 491 -1 645 -118 682 -514 1230 -1115 1542 -121 64 -331 145 -410 159 -14 3 -38 9 -55 14 -27 8 -85 20 -170 35 -154 27 -516 27 -656 0 -13 -3 -40 -8 -59 -11 -49 -9 -202 -49 -279 -74 -227 -72 -528 -242 -683 -386 -20 -19 -40 -34 -44 -34 -7 0 -76 53 -109 83 -40 37 -242 166 -335 215 -187 96 -466 187 -636 207 -28 3 -61 8 -75 11 -39 9 -389 12 -459 4z"
    />
  </g>
</svg>
