<svg height="512" viewBox="0 0 24 24" width="512" xmlns="http://www.w3.org/2000/svg"><g id="Layer_2" data-name="Layer 2"><path d="m20.8 8.839a1.446 1.446 0 0 1 -.42-1.013v-1.277a2.935 2.935 0 0 0 -2.931-2.931h-1.275a1.445 1.445 0 0 1 -1.012-.418l-1.09-1.091a2.934 2.934 0 0 0 -4.144 0l-1.089 1.091a1.446 1.446 0 0 1 -1.013.42h-1.277a2.935 2.935 0 0 0 -2.931 2.929v1.277a1.445 1.445 0 0 1 -.418 1.012l-1.092 1.09a2.934 2.934 0 0 0 0 4.144l1.092 1.089a1.446 1.446 0 0 1 .42 1.013v1.277a2.935 2.935 0 0 0 2.931 2.931h1.275a1.445 1.445 0 0 1 1.012.419l1.09 1.091a2.933 2.933 0 0 0 4.144 0l1.089-1.09a1.446 1.446 0 0 1 1.013-.42h1.277a2.935 2.935 0 0 0 2.931-2.931v-1.277a1.442 1.442 0 0 1 .42-1.012l1.09-1.09a2.934 2.934 0 0 0 0-4.144z" fill="#699efa"/><path d="m11 14.75a.744.744 0 0 1 -.53-.22l-2-2a.75.75 0 0 1 1.06-1.06l1.47 1.469 3.47-3.469a.75.75 0 0 1 1.06 1.06l-4 4a.744.744 0 0 1 -.53.22z" fill="#bedcfe"/></g></svg>