<svg id="Capa_1" enable-background="new 0 0 507.553 507.553" height="512" viewBox="0 0 507.553 507.553" width="512" xmlns="http://www.w3.org/2000/svg"><g><g><path d="m484.866 380.406-81.46-39.26-46.313-6.184h-150.711l-101.466 6.554-80.68 38.89c-4.02 1.94-4.02 7.66 0 9.6l228 109.88c1.46.71 3.17.71 4.63 0l228-109.88c4.02-1.94 4.02-7.66 0-9.6z" fill="#a9e4f9"/><path d="m403.406 341.146-46.313-6.184h-150.711l-101.466 6.554-80.68 38.89c-4.02 1.94-4.02 7.66 0 9.6l42.223 20.349 41.072-22.051c10.961-5.885 24.077-6.171 35.284-.77l97.718 47.096c4.103 1.995 8.683 3.049 13.243 3.049s9.14-1.054 13.164-3.011l165.257-79.645z" fill="#81d9f8"/><path d="m484.096 292.666-80.69-38.89-98.39-47.48h-97.98l-102.89 47.48-80.69 38.89c-4.01 1.93-4.01 7.66 0 9.59l81.46 39.26 190.871 4.941 107.619-5.311 80.69-38.89c4.01-1.93 4.01-7.66 0-9.59z" fill="#f7cf8f"/><path d="m403.406 253.776-98.39-47.48h-97.98l-102.89 47.48-80.69 38.89c-4.01 1.93-4.01 7.66 0 9.59l38.034 18.331 46.604-23.965c8.34-4.289 18.21-4.416 26.658-.345l100.888 48.623 34.425.891 162.131-78.14z" fill="#f5c374"/><path d="m403.406 341.146-147.32 71c-1.46.71-3.16.71-4.62 0l-146.55-70.63 147.32-71c1.46-.7 3.17-.7 4.63 0z" fill="#f5c374"/><g><path d="m256.866 270.516c-1.46-.7-3.17-.7-4.63 0l-85.469 41.191 84.571 40.623c2.029.974 4.392.966 6.413-.022l83.804-40.972z" fill="#f3b658"/><path d="m403.406 166.406-147.32-71c-1.46-.71-3.16-.71-4.62 0l-147.32 71-80.69 38.89c-4.01 1.93-4.01 7.66 0 9.59l228.01 109.89c1.46.71 3.16.71 4.62 0l228.01-109.89c4.01-1.93 4.01-7.66 0-9.59z" fill="#fcf0b6"/></g><g><path d="m256.086 95.406c-1.46-.71-3.16-.71-4.62 0l-77.141 37.177-.284.137-150.585 72.576c-4.01 1.93-4.01 7.66 0 9.59l42.46 20.464 47.398-23.778c8.331-4.18 18.13-4.257 26.527-.211l100.692 48.528c4.103 1.995 8.683 3.049 13.243 3.049s9.14-1.054 13.164-3.011l165.257-79.645z" fill="#fbe88c"/><g id="XMLID_00000146457166964828857100000001005004073500551818_"><g><path d="m484.096 117.926-228.01-109.89c-1.46-.7-3.16-.7-4.62 0l-228.01 109.89c-4.01 1.93-4.01 7.66 0 9.59l80.69 38.89h299.26l80.69-38.89c4.01-1.93 4.01-7.66 0-9.59z" fill="#ea9a98"/></g></g><path d="m295.31 26.94-39.224-18.904c-1.46-.7-3.16-.7-4.62 0l-228.01 109.89c-4.01 1.93-4.01 7.66 0 9.59l39.707 19.138z" fill="#e5827f"/><g id="XMLID_00000147220492040565826210000014428601650518638217_"><g><path d="m252.236 270.516-56.677 27.315 55.907 26.945c1.46.71 3.16.71 4.62 0l56.68-27.317-55.9-26.943c-1.46-.7-3.17-.7-4.63 0z" fill="#fbe88c"/></g></g></g><path d="m403.406 166.406-147.32 71c-1.46.71-3.16.71-4.62 0l-147.32-71 147.32-71c1.46-.71 3.16-.71 4.62 0z" fill="#e5827f"/></g><g><path d="m259.344 88.648c-3.538-1.704-7.598-1.705-11.137 0l-20.064 9.67c-3.731 1.799-5.298 6.281-3.5 10.013 1.799 3.731 6.282 5.298 10.013 3.5l19.12-9.216 19.12 9.216c1.05.506 2.159.746 3.251.746 2.79 0 5.469-1.564 6.762-4.246 1.798-3.731.231-8.214-3.5-10.013z"/><path d="m293.137 113.261c-1.798 3.731-.231 8.214 3.5 10.013l15.542 7.49c1.05.506 2.159.746 3.251.746 2.79 0 5.469-1.564 6.762-4.246 1.798-3.731.231-8.214-3.5-10.013l-15.542-7.49c-3.731-1.798-8.215-.231-10.013 3.5z"/><path d="m351.46 149.696c1.05.506 2.159.746 3.251.746 2.79 0 5.469-1.564 6.762-4.246 1.798-3.731.231-8.214-3.5-10.013l-15.542-7.49c-3.731-1.797-8.214-.232-10.013 3.5-1.798 3.731-.231 8.214 3.5 10.013z"/><path d="m165.121 128.693-15.542 7.49c-3.731 1.798-5.298 6.281-3.5 10.013 1.292 2.682 3.971 4.246 6.762 4.246 1.092 0 2.201-.24 3.251-.746l15.542-7.49c3.731-1.798 5.298-6.281 3.5-10.013-1.799-3.731-6.28-5.3-10.013-3.5z"/><path d="m204.403 109.761-15.542 7.49c-3.731 1.798-5.298 6.281-3.5 10.013 1.292 2.682 3.971 4.246 6.762 4.246 1.092 0 2.201-.24 3.251-.746l15.542-7.49c3.731-1.798 5.298-6.281 3.5-10.013-1.798-3.731-6.28-5.3-10.013-3.5z"/><path d="m159.996 305.903-15.542 7.491c-3.731 1.799-5.298 6.281-3.5 10.013 1.292 2.682 3.972 4.246 6.762 4.246 1.092 0 2.201-.24 3.251-.746l15.542-7.491c3.731-1.799 5.298-6.281 3.5-10.013-1.799-3.731-6.282-5.298-10.013-3.5z"/><path d="m284.535 275.528-25.19-12.141c-3.539-1.705-7.597-1.704-11.137 0l-25.189 12.14c-3.731 1.798-5.298 6.281-3.5 10.013 1.798 3.731 6.28 5.298 10.013 3.5l24.246-11.686 24.246 11.686c1.05.506 2.159.746 3.251.746 2.79 0 5.469-1.564 6.762-4.246 1.796-3.731.229-8.213-3.502-10.012z"/><path d="m363.099 313.393-15.542-7.491c-3.732-1.798-8.214-.231-10.013 3.5s-.231 8.214 3.5 10.013l15.542 7.491c1.05.506 2.159.746 3.251.746 2.79 0 5.469-1.564 6.762-4.246 1.798-3.731.231-8.214-3.5-10.013z"/><path d="m494.606 210.092c0-4.969-2.781-9.396-7.257-11.554l-66.667-32.131 66.667-32.131c4.477-2.158 7.257-6.585 7.257-11.554s-2.781-9.396-7.257-11.554l-149.3-71.957c-3.732-1.797-8.214-.231-10.013 3.5s-.231 8.214 3.5 10.013l145.237 69.999-73.365 35.359-21.693-10.455c-3.73-1.799-8.214-.231-10.013 3.5-1.798 3.731-.231 8.214 3.5 10.013l10.931 5.269-132.356 63.791-132.357-63.793 10.931-5.269c3.731-1.798 5.298-6.281 3.5-10.013-1.799-3.731-6.283-5.3-10.013-3.5l-21.693 10.455-73.365-35.358 222.996-107.476 48.886 23.562c3.731 1.798 8.214.231 10.013-3.5s.231-8.214-3.5-10.013l-49.831-24.017c-3.538-1.704-7.598-1.705-11.137 0l-228.003 109.889c-4.477 2.158-7.257 6.585-7.257 11.554s2.781 9.396 7.257 11.554l66.667 32.131-66.667 32.131c-4.477 2.158-7.257 6.584-7.257 11.554s2.781 9.396 7.257 11.554l66.667 32.131-66.667 32.131c-4.477 2.158-7.257 6.585-7.257 11.554s2.781 9.396 7.257 11.554l66.667 32.131-66.667 32.131c-4.477 2.158-7.257 6.585-7.257 11.554s2.781 9.396 7.257 11.554l228.004 109.889c1.769.852 3.668 1.278 5.567 1.278s3.8-.426 5.569-1.279l228.003-109.889c4.477-2.158 7.257-6.585 7.257-11.554s-2.781-9.396-7.257-11.554l-66.667-32.131 66.667-32.131c4.477-2.158 7.257-6.585 7.257-11.554s-2.781-9.396-7.257-11.554l-66.667-32.131 66.667-32.131c4.478-2.156 7.259-6.583 7.259-11.552zm-116.9 47.745c-3.731 1.798-5.298 6.281-3.5 10.013 1.292 2.682 3.971 4.246 6.762 4.246 1.092 0 2.202-.24 3.251-.746l19.188-9.248 73.365 35.359-73.365 35.359-16.568-7.985c-3.731-1.798-8.214-.231-10.013 3.5-1.798 3.731-.231 8.214 3.5 10.013l5.806 2.798-132.356 63.79-51.765-24.949c-3.731-1.798-8.214-.232-10.013 3.5-1.798 3.731-.231 8.214 3.5 10.013l52.708 25.403c1.77.854 3.67 1.28 5.57 1.28 1.899 0 3.799-.426 5.568-1.279l144.062-69.432 73.366 35.359-222.996 107.476-222.996-107.476 73.366-35.359 62.088 29.924c1.05.506 2.159.746 3.251.746 2.79 0 5.469-1.564 6.762-4.246 1.798-3.731.231-8.214-3.5-10.013l-51.326-24.737 5.805-2.798c3.731-1.798 5.298-6.281 3.5-10.013-1.798-3.731-6.281-5.299-10.013-3.5l-16.567 7.985-73.365-35.359 73.365-35.359 75.808 36.537c-.673 1.837-.635 3.933.282 5.835 1.292 2.682 3.971 4.246 6.762 4.246 1.092 0 2.201-.24 3.251-.746l4.537-2.187 53.423 25.748c1.769.852 3.668 1.278 5.567 1.278s3.8-.426 5.569-1.279l53.422-25.748 4.537 2.187c1.05.506 2.159.746 3.251.746 2.79 0 5.469-1.564 6.762-4.246.917-1.902.955-3.997.282-5.835l25.356-12.221c3.731-1.798 5.298-6.281 3.5-10.013-1.799-3.731-6.283-5.3-10.013-3.5l-33.675 16.23-4.492-2.165c-3.731-1.799-8.214-.231-10.013 3.5-.911 1.889-.955 3.97-.297 5.799l-44.19 21.298-44.19-21.298c.659-1.829.614-3.909-.296-5.799-1.798-3.731-6.28-5.3-10.013-3.5l-4.492 2.165-164.003-79.042 73.365-35.359 144.063 69.433c1.769.852 3.668 1.278 5.567 1.278s3.8-.426 5.569-1.279l144.062-69.432 73.365 35.359z"/></g></g></svg>