<svg id="Layer_1" enable-background="new 0 0 50 50" height="512" viewBox="0 0 50 50" width="512" xmlns="http://www.w3.org/2000/svg"><g><g><g><g enable-background="new"><g><path d="m48.3902 21.7-1.9681 17.3943-16.2934 9.4686v-16.2773z" fill="#3d3d3d"/></g><g><path d="m30.1287 32.2856v16.2773l-25.7283-14.8542-2.407-17.6937z" fill="#4f4d4d"/></g><g><path d="m47.9159 21.5838-17.8429 10.3692-27.6053-15.938 17.8429-10.3692z" fill="#686868"/></g></g></g><g><g enable-background="new"><path d="m48.6561 20.3801v1.926c0 .4489-.2954.8978-.8863 1.229l-14.8777 8.6499c-1.1817.6855-3.0961.6855-4.2896 0l-26.364-15.2203c-.6027-.3427-.8981-.8038-.8981-1.2527l.0118-1.926c0 .4489.2954.9099.8863 1.2527l26.3758 15.2203c1.1935.6855 3.0961.6855 4.2896 0l14.8777-8.6499c.579-.3312.8745-.7801.8745-1.229z" fill="#fac90f"/><g><path d="m47.7642 19.1298c1.1921.6882 1.1909 1.799.014 2.4829l-14.8789 8.6467c-1.1842.6882-3.0944.6882-4.2865 0l-26.3692-15.2242c-1.1846-.6839-1.1983-1.7947-.014-2.4829l14.8789-8.6467c1.1769-.6839 3.102-.6839 4.2865 0z" fill="#ffe44b"/></g></g></g><g><g enable-background="new"><g><path d="m47.4304 18.1576-.02 2.2202-5.63 3.2798.01-2.23c.01-.9902-.69-2.1899-1.55-2.6899l-23.93-13.8101c-.4301-.25-.82-.27-1.1-.1099l5.63-3.27c.28-.1699.67-.1499 1.1.1001l23.93 13.8198c.86.5 1.56 1.7002 1.56 2.69z" fill="#fac90f"/></g><g><path d="m41.7903 21.4276-.01 2.2202-27.04-15.6104.01-2.2197c0-.9902.7-1.3901 1.56-.8999l23.93 13.8198c.86.5001 1.55 1.6998 1.55 2.69z" fill="#edb506"/></g><g><g enable-background="new"><g><path d="m14.3646 4.963 1.4096-.8192-.0085 5.9936-1.4096.8192z" fill="#686868"/></g><path d="m39.3004 16.8978-.01 6.8198-1.41.8198.01-6.8198c0-.4399-.32-1-.7-1.2197l-23.53-13.5801c-.2-.1104-.38-.1201-.51-.0503l1.41-.8198c.13-.0703.31-.0601.5099.0498l23.52 13.5801c.3901.2202.7101.7803.7101 1.2202z" fill="#686868"/><g><path d="m37.8903 17.7274-.01 6.8101-1.42-.8198.01-5.9902-22.11-12.7598v5.9902l-1.42-.8203.0099-6.8101c0-.4497.31-.6401.71-.4097l23.52 13.5801c.3901.2295.7101.7798.7101 1.2295z" fill="#4f4d4d"/></g></g></g></g></g><g><g enable-background="new"><g><path d="m36.1503 24.6776-.02 2.2202-5.64 3.2798.01-2.23c.0099-.9897-.69-2.1899-1.55-2.6899l-23.93-13.8101c-.43-.25-.82-.27-1.1-.1099l5.64-3.27c.28-.1699.67-.1499 1.1.1001l23.93 13.8198c.86.5001 1.56 1.6998 1.56 2.69z" fill="#fac90f"/></g><g><path d="m30.5004 27.9476-.01 2.2202-27.04-15.6104.01-2.2197c.01-.9902.7-1.3901 1.56-.9004l23.93 13.8203c.86.5001 1.55 1.7003 1.55 2.69z" fill="#edb506"/></g></g></g></g><g><g enable-background="new"><g><path d="m12.3072 21.4695.5405-.3141 4.0981 2.3661-.5405.3141z" fill="#e8e8e8"/></g></g></g><g><g enable-background="new"><g><path d="m17.9603 22.2372v.7002l-1.01.58-.0199 6.2403-.5401.3198.0154-6.9375z" fill="#bfbfbf"/></g><g><path d="m12.3076 20.7739 1.5532-.9026 4.0982 2.366-1.5533.9027z" fill="#e8e8e8"/></g><g><path d="m16.3903 30.0775-4.1-2.3696.0201-6.2403v-.6904l4.0999 2.3599z" fill="#d8d8d8"/></g></g></g></g></svg>