<?xml version="1.0" encoding="iso-8859-1"?>
<!-- Generator: Adobe Illustrator 19.0.0, SVG Export Plug-In . SVG Version: 6.00 Build 0)  -->
<svg version="1.1" id="Capa_1" xmlns="http://www.w3.org/2000/svg" xmlns:xlink="http://www.w3.org/1999/xlink" x="0px" y="0px"
	 viewBox="0 0 512 512" style="enable-background:new 0 0 512 512;" xml:space="preserve">
<path style="fill:#4E7693;" d="M30.706,71.37l86.518,86.518l-75.896,75.896c-4.896-5.531-9.341-11.318-13.336-17.32
	c-27.941-41.943-33.8-94.23-17.566-140.516C13.406,67.427,24.314,64.979,30.706,71.37z"/>
<path style="fill:#385F82;" d="M101.501,142.166l15.722,15.722l-75.896,75.896c-4.896-5.531-9.341-11.318-13.336-17.32
	c0.963-1.485,2.089-2.878,3.38-4.169L101.501,142.166z"/>
<path style="fill:#B1C3C9;" d="M210.68,38.896C174.262,2.478,121.956-8.366,76.075,6.362C67.331,9.169,64.676,20.26,71.17,26.754
	l77.94,77.94c2.4,2.4,2.4,6.291,0,8.691L40.788,221.708c-6.178,6.178-4.147,16.706,3.934,20.028
	c43.806,18.008,136.4,16.5,151.135,31.234l223.366,223.366c20.886,20.886,54.749,20.886,75.635,0l0,0
	c20.886-20.886,20.886-54.749,0-75.635L292.892,218.735c-25.379-25.379-41.238-58.968-43.612-94.781
	C247.226,92.973,234.36,62.576,210.68,38.896z"/>
<path style="fill:#CFE1E5;" d="M510.522,458.513c0,3.933-0.43,7.866-1.291,11.717c-1.987-10.038-6.862-19.604-14.636-27.388
	L275.038,223.286c-25.381-25.381-41.236-58.966-43.612-94.783c-2.048-30.973-14.913-61.373-38.593-85.053
	C160.825,11.442,116.558-0.808,75.158,6.69c0.297-0.113,0.604-0.225,0.922-0.328c45.876-14.729,98.184-3.882,134.596,32.53
	c23.68,23.68,36.555,54.08,38.604,85.063c2.376,35.807,18.231,69.403,43.612,94.783l201.97,201.96
	C505.298,431.145,510.522,444.829,510.522,458.513z"/>
<path style="fill:#4E7693;" d="M199.724,167.174l-48.351,48.351c-2.4,2.4-6.291,2.4-8.691,0l-23.272-23.272
	c-2.4-2.4-2.4-6.291,0-8.691l48.351-48.351c2.4-2.4,6.291-2.4,8.691,0l23.272,23.272
	C202.124,160.883,202.124,164.774,199.724,167.174z"/>
<g>
	<path style="fill:#385F82;" d="M165.959,208.621c-1.966,0-3.932-0.75-5.432-2.25l-18.391-18.391c-3-3-3-7.864,0-10.864
		s7.864-3,10.864,0l18.391,18.391c3,3,3,7.864,0,10.864C169.89,207.871,167.924,208.621,165.959,208.621z"/>
	<path style="fill:#385F82;" d="M185.139,189.441c-1.966,0-3.932-0.75-5.432-2.25l-18.392-18.392c-3-3-3-7.864,0-10.864
		s7.864-3,10.864,0l18.392,18.392c3,3,3,7.864,0,10.864C189.071,188.691,187.105,189.441,185.139,189.441z"/>
</g>
<path style="fill:#748789;" d="M415.769,418.276L415.769,418.276c-7.736,7.736-20.279,7.736-28.015,0L224.28,254.802
	c-7.736-7.736-7.736-20.279,0-28.015l0,0c7.736-7.736,20.279-7.736,28.015,0l163.474,163.474
	C423.505,397.997,423.505,410.54,415.769,418.276z"/>
<circle style="fill:#4E7693;" cx="455.16" cy="457.67" r="18.255"/>
<g>
</g>
<g>
</g>
<g>
</g>
<g>
</g>
<g>
</g>
<g>
</g>
<g>
</g>
<g>
</g>
<g>
</g>
<g>
</g>
<g>
</g>
<g>
</g>
<g>
</g>
<g>
</g>
<g>
</g>
</svg>
