<svg id="Paw" enable-background="new 0 0 64 64" height="512" viewBox="0 0 64 64" width="512" xmlns="http://www.w3.org/2000/svg"><g><path d="m56.6441 16.5111c-.3331-2.7405-1.7942-5.0419-4.0123-6.3289-1.1886-.6814-2.5588-1.0447-3.9593-1.0447-.5678 0-1.128.053-1.6807.1665-.0227-4.406-2.5664-8.1458-6.5181-9.0921-.5906-.1362-1.1962-.2119-1.8094-.2119-2.5512 0-4.9208 1.2113-6.6544 3.225-1.7412-2.0137-4.1107-3.225-6.662-3.225-.6132 0-1.2189.0757-1.8093.2119-2.4907.5981-4.5498 2.3923-5.6476 4.9284-.5602 1.2794-.8479 2.7102-.863 4.1713-.5526-.1136-1.1204-.1741-1.6882-.1741-1.4005 0-2.7708.3634-3.9593 1.0447-4.2697 2.468-5.3675 8.2745-2.5134 13.2331.0116.0201.0233.0402.035.0602 2.9133 4.9743 4.6519 10.5465 4.6519 16.3111v24.211h36.8881v-24.1852c0-5.7657 1.7293-11.3447 4.6542-16.3134.0164-.0278.0326-.0557.0488-.0837 1.2416-2.1575 1.7715-4.6028 1.499-6.9042z" fill="#f4f4f4"/><path d="m55.1397 23.4127c-.0128.0256-.0256.064-.0384.0896-2.9311 4.9662-4.659 10.5468-4.659 16.3066v24.1911h-5.3503v-24.1911c0-5.7598 1.728-11.3404 4.6462-16.3066.0256-.0256.0384-.064.0513-.0896 1.2415-2.1503 1.7791-4.5951 1.4975-6.899-.3328-2.7391-1.792-5.043-4.0063-6.3358-.7443-.4241-2.2726-.8312-3.6211-.9685-1.1178-.1138-2.0191-.9433-2.2409-2.0448-.6326-3.1411-2.6079-5.6833-5.4528-6.7015.8576-.2944 1.7663-.4608 2.7008-.4608.6144 0 1.2159.0769 1.8047.2048 3.9551.9472 6.5022 4.6846 6.515 9.1004.5632-.1152 1.1136-.1664 1.6895-.1664 1.3951 0 2.7647.3584 3.955 1.0368 2.2143 1.2928 3.6863 3.5967 4.0191 6.3358.2688 2.304-.2688 4.7487-1.5103 6.899z" opacity=".09"/><path d="m43.8377 36.0056c-2.2143 4.1599-7.8717 2.3167-11.8396 2.3167-3.9678 0-9.6253 1.8431-11.8396-2.3167-2.4575-4.6078 2.1759-8.8829 3.3919-10.7516 2.9054-4.467 4.7008-6.4766 8.4477-6.4766 3.7468 0 5.5422 2.0095 8.4477 6.4766 1.216 1.8687 5.8494 6.1438 3.3919 10.7516z" fill="#f66596"/><path d="m43.8377 36.0074c-1.4335 2.688-4.3134 2.8672-7.2445 2.6623 1.8175-.1919 3.3918-.8832 4.3518-2.6623 2.4575-4.6078-2.1759-8.8829-3.3918-10.7516-2.5087-3.8527-4.1855-5.875-7.0014-6.3614.448-.0768.9343-.1152 1.4464-.1152 3.7503 0 5.5422 2.0095 8.4477 6.4766 1.2159 1.8687 5.8493 6.1438 3.3918 10.7516z" opacity=".09"/><ellipse cx="47.523" cy="19.022" fill="#f66596" rx="5.662" ry="4.246" transform="matrix(.5 -.866 .866 .5 7.288 50.667)"/><path d="m51.1974 21.1472c-1.4847 2.5599-4.1855 3.827-6.1822 2.9311 1.2544-.4737 2.4576-1.4976 3.2895-2.9311 1.5616-2.7135 1.1903-5.8494-.8447-7.0269-.1024-.064-.2176-.1152-.32-.1536 1.1007-.4224 2.2527-.3968 3.2127.1536 2.0351 1.1775 2.4062 4.3134.8447 7.0269z" opacity=".09"/><ellipse cx="38.098" cy="10.141" fill="#f66596" rx="5.662" ry="4.246" transform="matrix(.232 -.973 .973 .232 19.388 44.843)"/><path d="m42.2249 11.1251c-.7168 3.0463-3.1614 5.0686-5.4398 4.5183-.2304-.0512-.448-.128-.6528-.2304 1.4592-.6656 2.7135-2.2527 3.1999-4.2879.6528-2.739-.2944-5.363-2.1503-6.2589.7168-.32 1.472-.4096 2.2271-.2304 2.2784.5376 3.5455 3.4431 2.8159 6.4893z" opacity=".09"/><ellipse cx="25.898" cy="10.141" fill="#f66596" rx="4.246" ry="5.662" transform="matrix(.973 -.232 .232 .973 -1.647 6.291)"/><path d="m27.2111 15.6434c-.7552.1792-1.5231.0896-2.2399-.2304 1.8559-.896 2.8159-3.5199 2.1631-6.259-.4864-2.0351-1.7407-3.6223-3.1999-4.2878.2048-.1024.4224-.1792.6528-.2304 2.2783-.5504 4.7102 1.4719 5.4398 4.5182s-.5376 5.9518-2.8159 6.4894z" opacity=".09"/><ellipse cx="16.473" cy="19.022" fill="#f66596" rx="4.246" ry="5.662" transform="matrix(.866 -.5 .5 .866 -7.304 10.785)"/><path d="m19.301 23.9247c-.9472.5504-2.0991.576-3.2127.1537.1024-.0384.2176-.0896.32-.1537 2.0351-1.1775 2.4063-4.3134.8447-7.0269-.8319-1.4335-2.0351-2.4575-3.2895-2.9311 2.0095-.896 4.6975.3712 6.1822 2.9311 1.5744 2.7134 1.1904 5.8493-.8447 7.0269z" opacity=".09"/></g></svg>